<mxfile host="app.diagrams.net" agent="Mozilla/5.0 (Macintosh; Intel Mac OS X 10_15_7) AppleWebKit/537.36 (KHTML, like Gecko) Chrome/135.0.0.0 Safari/537.36 Edg/135.0.0.0" version="27.1.4">
  <diagram name="第 1 页" id="Vk_0lWf_ZemlTiVQxBSw">
    <mxGraphModel dx="1188" dy="675" grid="1" gridSize="10" guides="1" tooltips="1" connect="1" arrows="1" fold="1" page="1" pageScale="1" pageWidth="1169" pageHeight="827" math="0" shadow="0">
      <root>
        <mxCell id="0" />
        <mxCell id="1" parent="0" />
        <mxCell id="GwP-EpO8YHv75SZYuR2i-10" value="" style="rounded=0;whiteSpace=wrap;html=1;dashed=1;" vertex="1" parent="1">
          <mxGeometry x="835" y="360" width="190" height="240" as="geometry" />
        </mxCell>
        <mxCell id="rxMHFcCtZd2pthugikuh-30" value="" style="rounded=0;whiteSpace=wrap;html=1;dashed=1;" parent="1" vertex="1">
          <mxGeometry x="95" y="360" width="190" height="240" as="geometry" />
        </mxCell>
        <mxCell id="rxMHFcCtZd2pthugikuh-26" value="" style="rounded=0;whiteSpace=wrap;html=1;dashed=1;" parent="1" vertex="1">
          <mxGeometry x="320" y="360" width="480" height="240" as="geometry" />
        </mxCell>
        <mxCell id="rxMHFcCtZd2pthugikuh-24" value="" style="rounded=0;whiteSpace=wrap;html=1;dashed=1;" parent="1" vertex="1">
          <mxGeometry x="70" y="60" width="480" height="230" as="geometry" />
        </mxCell>
        <mxCell id="8hZZGk28VMVUj-fmmLYI-37" value="&lt;span style=&quot;background-color: transparent; color: light-dark(rgb(0, 0, 0), rgb(255, 255, 255));&quot;&gt;auth-interface&lt;/span&gt;" style="rounded=1;whiteSpace=wrap;html=1;" parent="1" vertex="1">
          <mxGeometry x="250" y="90" width="120" height="60" as="geometry" />
        </mxCell>
        <mxCell id="8hZZGk28VMVUj-fmmLYI-41" style="edgeStyle=orthogonalEdgeStyle;rounded=0;orthogonalLoop=1;jettySize=auto;html=1;exitX=0.5;exitY=0;exitDx=0;exitDy=0;entryX=0;entryY=0.5;entryDx=0;entryDy=0;" parent="1" source="8hZZGk28VMVUj-fmmLYI-38" target="8hZZGk28VMVUj-fmmLYI-37" edge="1">
          <mxGeometry relative="1" as="geometry" />
        </mxCell>
        <mxCell id="8hZZGk28VMVUj-fmmLYI-43" value="implements" style="edgeLabel;html=1;align=center;verticalAlign=middle;resizable=0;points=[];" parent="8hZZGk28VMVUj-fmmLYI-41" vertex="1" connectable="0">
          <mxGeometry x="-0.2548" relative="1" as="geometry">
            <mxPoint as="offset" />
          </mxGeometry>
        </mxCell>
        <mxCell id="8hZZGk28VMVUj-fmmLYI-66" style="edgeStyle=orthogonalEdgeStyle;rounded=0;orthogonalLoop=1;jettySize=auto;html=1;exitX=0;exitY=0.5;exitDx=0;exitDy=0;entryX=0;entryY=0.5;entryDx=0;entryDy=0;" parent="1" source="8hZZGk28VMVUj-fmmLYI-38" target="8hZZGk28VMVUj-fmmLYI-58" edge="1">
          <mxGeometry relative="1" as="geometry">
            <Array as="points">
              <mxPoint x="50" y="230" />
              <mxPoint x="50" y="550" />
            </Array>
          </mxGeometry>
        </mxCell>
        <mxCell id="8hZZGk28VMVUj-fmmLYI-67" value="依赖" style="edgeLabel;html=1;align=center;verticalAlign=middle;resizable=0;points=[];" parent="8hZZGk28VMVUj-fmmLYI-66" vertex="1" connectable="0">
          <mxGeometry x="0.0016" relative="1" as="geometry">
            <mxPoint as="offset" />
          </mxGeometry>
        </mxCell>
        <mxCell id="8hZZGk28VMVUj-fmmLYI-38" value="&lt;span style=&quot;background-color: transparent; color: light-dark(rgb(0, 0, 0), rgb(255, 255, 255));&quot;&gt;auth-core&lt;/span&gt;" style="rounded=1;whiteSpace=wrap;html=1;" parent="1" vertex="1">
          <mxGeometry x="130" y="200" width="120" height="60" as="geometry" />
        </mxCell>
        <mxCell id="8hZZGk28VMVUj-fmmLYI-42" style="edgeStyle=orthogonalEdgeStyle;rounded=0;orthogonalLoop=1;jettySize=auto;html=1;exitX=0.5;exitY=0;exitDx=0;exitDy=0;entryX=1;entryY=0.5;entryDx=0;entryDy=0;" parent="1" source="8hZZGk28VMVUj-fmmLYI-39" target="8hZZGk28VMVUj-fmmLYI-37" edge="1">
          <mxGeometry relative="1" as="geometry" />
        </mxCell>
        <mxCell id="8hZZGk28VMVUj-fmmLYI-44" value="implements" style="edgeLabel;html=1;align=center;verticalAlign=middle;resizable=0;points=[];" parent="8hZZGk28VMVUj-fmmLYI-42" vertex="1" connectable="0">
          <mxGeometry x="-0.2429" y="-1" relative="1" as="geometry">
            <mxPoint as="offset" />
          </mxGeometry>
        </mxCell>
        <mxCell id="8hZZGk28VMVUj-fmmLYI-48" style="edgeStyle=orthogonalEdgeStyle;rounded=0;orthogonalLoop=1;jettySize=auto;html=1;exitX=0;exitY=0.5;exitDx=0;exitDy=0;entryX=1;entryY=0.5;entryDx=0;entryDy=0;" parent="1" source="8hZZGk28VMVUj-fmmLYI-39" target="8hZZGk28VMVUj-fmmLYI-38" edge="1">
          <mxGeometry relative="1" as="geometry" />
        </mxCell>
        <mxCell id="8hZZGk28VMVUj-fmmLYI-49" value="openfeign调用" style="edgeLabel;html=1;align=center;verticalAlign=middle;resizable=0;points=[];" parent="8hZZGk28VMVUj-fmmLYI-48" vertex="1" connectable="0">
          <mxGeometry x="-0.0111" y="-1" relative="1" as="geometry">
            <mxPoint as="offset" />
          </mxGeometry>
        </mxCell>
        <mxCell id="8hZZGk28VMVUj-fmmLYI-39" value="&lt;span style=&quot;background-color: transparent; color: light-dark(rgb(0, 0, 0), rgb(255, 255, 255));&quot;&gt;auth-feign&lt;/span&gt;" style="rounded=1;whiteSpace=wrap;html=1;" parent="1" vertex="1">
          <mxGeometry x="370" y="200" width="120" height="60" as="geometry" />
        </mxCell>
        <mxCell id="8hZZGk28VMVUj-fmmLYI-57" style="edgeStyle=orthogonalEdgeStyle;rounded=0;orthogonalLoop=1;jettySize=auto;html=1;exitX=0.5;exitY=0;exitDx=0;exitDy=0;" parent="1" source="8hZZGk28VMVUj-fmmLYI-47" target="8hZZGk28VMVUj-fmmLYI-38" edge="1">
          <mxGeometry relative="1" as="geometry" />
        </mxCell>
        <mxCell id="8hZZGk28VMVUj-fmmLYI-60" value="依赖" style="edgeLabel;html=1;align=center;verticalAlign=middle;resizable=0;points=[];" parent="8hZZGk28VMVUj-fmmLYI-57" vertex="1" connectable="0">
          <mxGeometry x="-0.0643" y="-1" relative="1" as="geometry">
            <mxPoint as="offset" />
          </mxGeometry>
        </mxCell>
        <mxCell id="8hZZGk28VMVUj-fmmLYI-59" style="edgeStyle=orthogonalEdgeStyle;rounded=0;orthogonalLoop=1;jettySize=auto;html=1;exitX=0.5;exitY=1;exitDx=0;exitDy=0;" parent="1" source="8hZZGk28VMVUj-fmmLYI-47" target="8hZZGk28VMVUj-fmmLYI-58" edge="1">
          <mxGeometry relative="1" as="geometry" />
        </mxCell>
        <mxCell id="8hZZGk28VMVUj-fmmLYI-62" value="依赖" style="edgeLabel;html=1;align=center;verticalAlign=middle;resizable=0;points=[];" parent="8hZZGk28VMVUj-fmmLYI-59" vertex="1" connectable="0">
          <mxGeometry x="-0.0722" relative="1" as="geometry">
            <mxPoint as="offset" />
          </mxGeometry>
        </mxCell>
        <mxCell id="8hZZGk28VMVUj-fmmLYI-47" value="&lt;span style=&quot;background-color: transparent; color: light-dark(rgb(0, 0, 0), rgb(255, 255, 255));&quot;&gt;sys-module-starter&lt;/span&gt;" style="rounded=1;whiteSpace=wrap;html=1;" parent="1" vertex="1">
          <mxGeometry x="130" y="400" width="120" height="60" as="geometry" />
        </mxCell>
        <mxCell id="8hZZGk28VMVUj-fmmLYI-56" style="edgeStyle=orthogonalEdgeStyle;rounded=0;orthogonalLoop=1;jettySize=auto;html=1;exitX=0.5;exitY=0;exitDx=0;exitDy=0;entryX=0.5;entryY=1;entryDx=0;entryDy=0;" parent="1" source="8hZZGk28VMVUj-fmmLYI-52" target="8hZZGk28VMVUj-fmmLYI-39" edge="1">
          <mxGeometry relative="1" as="geometry" />
        </mxCell>
        <mxCell id="8hZZGk28VMVUj-fmmLYI-61" value="依赖" style="edgeLabel;html=1;align=center;verticalAlign=middle;resizable=0;points=[];" parent="8hZZGk28VMVUj-fmmLYI-56" vertex="1" connectable="0">
          <mxGeometry x="-0.0643" relative="1" as="geometry">
            <mxPoint as="offset" />
          </mxGeometry>
        </mxCell>
        <mxCell id="rxMHFcCtZd2pthugikuh-9" value="依赖" style="edgeStyle=orthogonalEdgeStyle;rounded=0;orthogonalLoop=1;jettySize=auto;html=1;exitX=0.5;exitY=1;exitDx=0;exitDy=0;" parent="1" source="8hZZGk28VMVUj-fmmLYI-52" target="rxMHFcCtZd2pthugikuh-4" edge="1">
          <mxGeometry relative="1" as="geometry" />
        </mxCell>
        <mxCell id="8hZZGk28VMVUj-fmmLYI-52" value="&lt;span style=&quot;background-color: transparent; color: light-dark(rgb(0, 0, 0), rgb(255, 255, 255));&quot;&gt;a-module-starter&lt;/span&gt;" style="rounded=1;whiteSpace=wrap;html=1;" parent="1" vertex="1">
          <mxGeometry x="370" y="400" width="120" height="60" as="geometry" />
        </mxCell>
        <mxCell id="8hZZGk28VMVUj-fmmLYI-58" value="&lt;span style=&quot;background-color: transparent; color: light-dark(rgb(0, 0, 0), rgb(255, 255, 255));&quot;&gt;sys-module-core&lt;/span&gt;&lt;span style=&quot;background-color: transparent; color: light-dark(rgb(0, 0, 0), rgb(255, 255, 255));&quot;&gt;基础信息（包括权限）&lt;/span&gt;" style="rounded=1;whiteSpace=wrap;html=1;" parent="1" vertex="1">
          <mxGeometry x="130" y="520" width="120" height="60" as="geometry" />
        </mxCell>
        <mxCell id="rxMHFcCtZd2pthugikuh-10" style="edgeStyle=orthogonalEdgeStyle;rounded=0;orthogonalLoop=1;jettySize=auto;html=1;exitX=1;exitY=0.5;exitDx=0;exitDy=0;" parent="1" source="rxMHFcCtZd2pthugikuh-4" target="rxMHFcCtZd2pthugikuh-5" edge="1">
          <mxGeometry relative="1" as="geometry" />
        </mxCell>
        <mxCell id="rxMHFcCtZd2pthugikuh-11" value="依赖" style="edgeLabel;html=1;align=center;verticalAlign=middle;resizable=0;points=[];" parent="rxMHFcCtZd2pthugikuh-10" vertex="1" connectable="0">
          <mxGeometry y="-1" relative="1" as="geometry">
            <mxPoint as="offset" />
          </mxGeometry>
        </mxCell>
        <mxCell id="rxMHFcCtZd2pthugikuh-4" value="&lt;span style=&quot;background-color: transparent; color: light-dark(rgb(0, 0, 0), rgb(255, 255, 255));&quot;&gt;a-module-core&lt;/span&gt;" style="rounded=1;whiteSpace=wrap;html=1;" parent="1" vertex="1">
          <mxGeometry x="370" y="520" width="120" height="60" as="geometry" />
        </mxCell>
        <mxCell id="rxMHFcCtZd2pthugikuh-5" value="&lt;span style=&quot;background-color: transparent; color: light-dark(rgb(0, 0, 0), rgb(255, 255, 255));&quot;&gt;a-module-interface&lt;/span&gt;" style="rounded=1;whiteSpace=wrap;html=1;" parent="1" vertex="1">
          <mxGeometry x="620" y="520" width="120" height="60" as="geometry" />
        </mxCell>
        <mxCell id="rxMHFcCtZd2pthugikuh-12" style="edgeStyle=orthogonalEdgeStyle;rounded=0;orthogonalLoop=1;jettySize=auto;html=1;exitX=0.5;exitY=1;exitDx=0;exitDy=0;entryX=0.5;entryY=0;entryDx=0;entryDy=0;" parent="1" source="rxMHFcCtZd2pthugikuh-6" target="rxMHFcCtZd2pthugikuh-5" edge="1">
          <mxGeometry relative="1" as="geometry" />
        </mxCell>
        <mxCell id="rxMHFcCtZd2pthugikuh-13" value="依赖" style="edgeLabel;html=1;align=center;verticalAlign=middle;resizable=0;points=[];" parent="rxMHFcCtZd2pthugikuh-12" vertex="1" connectable="0">
          <mxGeometry x="-0.0667" y="-2" relative="1" as="geometry">
            <mxPoint as="offset" />
          </mxGeometry>
        </mxCell>
        <mxCell id="rxMHFcCtZd2pthugikuh-14" style="edgeStyle=orthogonalEdgeStyle;rounded=0;orthogonalLoop=1;jettySize=auto;html=1;exitX=0;exitY=0.5;exitDx=0;exitDy=0;entryX=1;entryY=0.5;entryDx=0;entryDy=0;" parent="1" source="rxMHFcCtZd2pthugikuh-6" target="8hZZGk28VMVUj-fmmLYI-52" edge="1">
          <mxGeometry relative="1" as="geometry" />
        </mxCell>
        <mxCell id="rxMHFcCtZd2pthugikuh-16" value="openfeign调用" style="edgeLabel;html=1;align=center;verticalAlign=middle;resizable=0;points=[];" parent="rxMHFcCtZd2pthugikuh-14" vertex="1" connectable="0">
          <mxGeometry x="0.0769" y="-3" relative="1" as="geometry">
            <mxPoint as="offset" />
          </mxGeometry>
        </mxCell>
        <mxCell id="rxMHFcCtZd2pthugikuh-6" value="&lt;span style=&quot;background-color: transparent; color: light-dark(rgb(0, 0, 0), rgb(255, 255, 255));&quot;&gt;a-module-feign&lt;/span&gt;" style="rounded=1;whiteSpace=wrap;html=1;" parent="1" vertex="1">
          <mxGeometry x="620" y="400" width="120" height="60" as="geometry" />
        </mxCell>
        <mxCell id="GwP-EpO8YHv75SZYuR2i-2" style="edgeStyle=orthogonalEdgeStyle;rounded=0;orthogonalLoop=1;jettySize=auto;html=1;exitX=0.5;exitY=1;exitDx=0;exitDy=0;entryX=0.5;entryY=0;entryDx=0;entryDy=0;" edge="1" parent="1" source="rxMHFcCtZd2pthugikuh-17" target="GwP-EpO8YHv75SZYuR2i-1">
          <mxGeometry relative="1" as="geometry" />
        </mxCell>
        <mxCell id="GwP-EpO8YHv75SZYuR2i-3" value="依赖" style="edgeLabel;html=1;align=center;verticalAlign=middle;resizable=0;points=[];" vertex="1" connectable="0" parent="GwP-EpO8YHv75SZYuR2i-2">
          <mxGeometry x="-0.1333" y="1" relative="1" as="geometry">
            <mxPoint as="offset" />
          </mxGeometry>
        </mxCell>
        <mxCell id="GwP-EpO8YHv75SZYuR2i-4" style="edgeStyle=orthogonalEdgeStyle;rounded=0;orthogonalLoop=1;jettySize=auto;html=1;exitX=1;exitY=0.5;exitDx=0;exitDy=0;entryX=0;entryY=0.5;entryDx=0;entryDy=0;" edge="1" parent="1" source="rxMHFcCtZd2pthugikuh-17" target="rxMHFcCtZd2pthugikuh-18">
          <mxGeometry relative="1" as="geometry" />
        </mxCell>
        <mxCell id="rxMHFcCtZd2pthugikuh-17" value="&lt;span style=&quot;background-color: transparent; color: light-dark(rgb(0, 0, 0), rgb(255, 255, 255));&quot;&gt;b-module-starter&lt;/span&gt;" style="rounded=1;whiteSpace=wrap;html=1;" parent="1" vertex="1">
          <mxGeometry x="870" y="400" width="120" height="60" as="geometry" />
        </mxCell>
        <mxCell id="rxMHFcCtZd2pthugikuh-20" style="edgeStyle=orthogonalEdgeStyle;rounded=0;orthogonalLoop=1;jettySize=auto;html=1;exitX=0.5;exitY=0;exitDx=0;exitDy=0;entryX=0.5;entryY=0;entryDx=0;entryDy=0;" parent="1" target="rxMHFcCtZd2pthugikuh-6" edge="1">
          <mxGeometry relative="1" as="geometry">
            <mxPoint x="1080" y="400" as="sourcePoint" />
            <mxPoint x="680" y="390" as="targetPoint" />
            <Array as="points">
              <mxPoint x="1080" y="320" />
              <mxPoint x="680" y="320" />
            </Array>
          </mxGeometry>
        </mxCell>
        <mxCell id="rxMHFcCtZd2pthugikuh-21" value="（依赖）&lt;br&gt;feign接口调用模式" style="edgeLabel;html=1;align=center;verticalAlign=middle;resizable=0;points=[];" parent="rxMHFcCtZd2pthugikuh-20" vertex="1" connectable="0">
          <mxGeometry x="-0.0444" y="-2" relative="1" as="geometry">
            <mxPoint as="offset" />
          </mxGeometry>
        </mxCell>
        <mxCell id="GwP-EpO8YHv75SZYuR2i-8" style="edgeStyle=orthogonalEdgeStyle;rounded=0;orthogonalLoop=1;jettySize=auto;html=1;exitX=0.5;exitY=1;exitDx=0;exitDy=0;entryX=0.5;entryY=1;entryDx=0;entryDy=0;" edge="1" parent="1" source="rxMHFcCtZd2pthugikuh-18" target="rxMHFcCtZd2pthugikuh-4">
          <mxGeometry relative="1" as="geometry">
            <Array as="points">
              <mxPoint x="1080" y="630" />
              <mxPoint x="430" y="630" />
            </Array>
          </mxGeometry>
        </mxCell>
        <mxCell id="GwP-EpO8YHv75SZYuR2i-11" value="（依赖）&lt;br&gt;service直接调用模式" style="edgeLabel;html=1;align=center;verticalAlign=middle;resizable=0;points=[];" vertex="1" connectable="0" parent="GwP-EpO8YHv75SZYuR2i-8">
          <mxGeometry x="-0.0087" y="-2" relative="1" as="geometry">
            <mxPoint as="offset" />
          </mxGeometry>
        </mxCell>
        <mxCell id="rxMHFcCtZd2pthugikuh-18" value="部署时决&lt;div&gt;定模式&lt;/div&gt;" style="rhombus;whiteSpace=wrap;html=1;" parent="1" vertex="1">
          <mxGeometry x="1040" y="390" width="80" height="80" as="geometry" />
        </mxCell>
        <mxCell id="rxMHFcCtZd2pthugikuh-25" value="&lt;font style=&quot;font-size: 18px;&quot;&gt;权限模块&lt;/font&gt;" style="text;html=1;align=center;verticalAlign=middle;whiteSpace=wrap;rounded=0;" parent="1" vertex="1">
          <mxGeometry x="80" y="70" width="80" height="30" as="geometry" />
        </mxCell>
        <mxCell id="rxMHFcCtZd2pthugikuh-27" value="&lt;font style=&quot;font-size: 18px;&quot;&gt;模块a&lt;/font&gt;" style="text;html=1;align=center;verticalAlign=middle;whiteSpace=wrap;rounded=0;" parent="1" vertex="1">
          <mxGeometry x="520" y="360" width="80" height="30" as="geometry" />
        </mxCell>
        <mxCell id="rxMHFcCtZd2pthugikuh-31" value="&lt;font style=&quot;font-size: 18px;&quot;&gt;系统模块&lt;/font&gt;" style="text;html=1;align=center;verticalAlign=middle;whiteSpace=wrap;rounded=0;" parent="1" vertex="1">
          <mxGeometry x="95" y="360" width="80" height="30" as="geometry" />
        </mxCell>
        <mxCell id="GwP-EpO8YHv75SZYuR2i-5" style="edgeStyle=orthogonalEdgeStyle;rounded=0;orthogonalLoop=1;jettySize=auto;html=1;exitX=0;exitY=0.5;exitDx=0;exitDy=0;" edge="1" parent="1" source="GwP-EpO8YHv75SZYuR2i-1" target="rxMHFcCtZd2pthugikuh-5">
          <mxGeometry relative="1" as="geometry" />
        </mxCell>
        <mxCell id="GwP-EpO8YHv75SZYuR2i-7" value="依赖" style="edgeLabel;html=1;align=center;verticalAlign=middle;resizable=0;points=[];" vertex="1" connectable="0" parent="GwP-EpO8YHv75SZYuR2i-5">
          <mxGeometry x="-0.4" y="-1" relative="1" as="geometry">
            <mxPoint as="offset" />
          </mxGeometry>
        </mxCell>
        <mxCell id="GwP-EpO8YHv75SZYuR2i-1" value="&lt;span style=&quot;background-color: transparent; color: light-dark(rgb(0, 0, 0), rgb(255, 255, 255));&quot;&gt;b-module-core&lt;/span&gt;" style="rounded=1;whiteSpace=wrap;html=1;" vertex="1" parent="1">
          <mxGeometry x="870" y="520" width="120" height="60" as="geometry" />
        </mxCell>
        <mxCell id="GwP-EpO8YHv75SZYuR2i-12" value="&lt;font style=&quot;font-size: 18px;&quot;&gt;模块b&lt;/font&gt;" style="text;html=1;align=center;verticalAlign=middle;whiteSpace=wrap;rounded=0;" vertex="1" parent="1">
          <mxGeometry x="835" y="360" width="80" height="30" as="geometry" />
        </mxCell>
      </root>
    </mxGraphModel>
  </diagram>
</mxfile>
